<?xml version="1.0" standalone="no"?>
<!DOCTYPE svg PUBLIC "-//W3C//DTD SVG 20010904//EN"
 "http://www.w3.org/TR/2001/REC-SVG-20010904/DTD/svg10.dtd">
<svg version="1.0" xmlns="http://www.w3.org/2000/svg"
 width="300.000000pt" height="300.000000pt" viewBox="0 0 300.000000 300.000000"
 preserveAspectRatio="xMidYMid meet">
<metadata>
Created by potrace 1.11, written by Peter Selinger 2001-2013
</metadata>
<g transform="translate(0.000000,300.000000) scale(0.100000,-0.100000)"
fill="#000000" stroke="none">
<path d="M0 1500 l0 -1500 1500 0 1500 0 0 1500 0 1500 -1500 0 -1500 0 0
-1500z m2590 785 l0 -145 -885 0 -885 0 0 145 0 145 885 0 885 0 0 -145z
m-1941 -493 c28 -62 97 -127 150 -142 22 -6 293 -10 721 -10 568 0 696 -3 748
-15 148 -35 281 -139 350 -273 22 -42 45 -101 52 -131 18 -76 8 -231 -19 -302
-34 -89 -112 -191 -185 -243 -35 -25 -66 -46 -70 -46 -3 0 -6 116 -6 259 0
292 -5 319 -68 384 -74 77 -13 71 -832 77 l-735 5 -65 25 c-136 54 -228 135
-295 262 -61 116 -77 233 -50 363 28 132 115 261 225 334 l45 29 5 -261 c5
-249 6 -265 29 -315z m1551 -1077 l0 -145 -885 0 -885 0 0 145 0 145 885 0
885 0 0 -145z"/>
</g>
</svg>
